<?xml version="1.0" encoding="UTF-8"?>
<!DOCTYPE svg PUBLIC "-//W3C//DTD SVG 1.1//EN" "http://www.w3.org/Graphics/SVG/1.1/DTD/svg11.dtd">
<!-- Creator: CorelDRAW 2019 (64-Bit) -->
<svg xmlns="http://www.w3.org/2000/svg" xml:space="preserve" width="26.599mm" height="26.599mm" version="1.1" style="shape-rendering:geometricPrecision; text-rendering:geometricPrecision; image-rendering:optimizeQuality; fill-rule:evenodd; clip-rule:evenodd"
viewBox="0 0 4768.34 4768.34"
 xmlns:xlink="http://www.w3.org/1999/xlink"
 xmlns:xodm="http://www.corel.com/coreldraw/odm/2003">
 <defs>
  <style type="text/css">
   <![CDATA[
    .fil0 {fill:white}
   ]]>
  </style>
 </defs>
 <g id="Layer_x0020_1">
  <metadata id="CorelCorpID_0Corel-Layer"/>
  <path class="fil0" d="M616.48 105.45l1767.67 1767.67 1767.7 -1767.7c140.55,-140.55 370.47,-140.55 511.02,0l0.02 0.04c140.56,140.55 140.56,370.47 0,511.02l-1767.69 1767.7 1767.72 1767.7c140.55,140.56 140.55,370.47 0,511.04l-0.04 0.02c-140.55,140.55 -370.47,140.55 -511.02,0l-1767.72 -1767.72 -1767.69 1767.7c-140.56,140.55 -370.47,140.55 -511.04,0l-0.02 -0.04c-140.55,-140.55 -140.55,-370.47 0,-511.02l1767.7 -1767.69 -1767.69 -1767.69c-140.55,-140.55 -140.55,-370.47 0,-511.02l0.04 -0.02c140.55,-140.56 370.47,-140.56 511.02,0z"/>
 </g>
</svg>
